<svg xmlns="http://www.w3.org/2000/svg" xmlns:xlink="http://www.w3.org/1999/xlink" version="1.1" x="0px" y="0px" viewBox="0 0 100 125" enable-background="new 0 0 100 100" xml:space="preserve"><path d="M39.487,66.01c-1.799,0-3.496,0.621-4.904,1.772c-1.409-1.152-3.106-1.772-4.906-1.772c-2.284,0-4.469,1.011-5.994,2.774  c-1.709,1.975-2.415,4.678-1.988,7.613c0.889,6.106,6.842,10.986,12.349,13.113c0.174,0.067,0.356,0.101,0.54,0.101  s0.367-0.034,0.541-0.101c5.505-2.127,11.458-7.007,12.346-13.113c0.427-2.934-0.279-5.638-1.988-7.613  C43.956,67.021,41.771,66.01,39.487,66.01z M44.501,75.965c-0.682,4.688-5.515,8.666-9.918,10.528  c-4.404-1.861-9.238-5.839-9.92-10.528c-0.299-2.059,0.158-3.913,1.288-5.219c0.955-1.104,2.313-1.737,3.726-1.737  c1.422,0,2.758,0.653,3.761,1.84c0.57,0.675,1.723,0.674,2.291,0c1.003-1.187,2.338-1.84,3.759-1.84  c1.413,0,2.771,0.633,3.726,1.737C44.343,72.053,44.8,73.906,44.501,75.965z M88.563,39.035h-3.125v-11.4c0-4.136-3.364-7.5-7.5-7.5  H14.31c-1.859,0-3.372-1.513-3.372-3.373s1.513-3.373,3.372-3.373H76.44c0.828,0,1.5-0.671,1.5-1.5s-0.672-1.5-1.5-1.5H14.31  c-3.514,0-6.372,2.859-6.372,6.373V71.81c0,4.136,3.364,7.5,7.5,7.5h2.188c0.828,0,1.5-0.671,1.5-1.5s-0.672-1.5-1.5-1.5h-2.188  c-2.481,0-4.5-2.019-4.5-4.5V22.159c0.979,0.614,2.133,0.976,3.372,0.976h63.628c2.481,0,4.5,2.019,4.5,4.5v11.4H69.313  c-1.93,0-3.5,1.57-3.5,3.5V56.91c0,1.93,1.57,3.5,3.5,3.5h13.125v11.4c0,2.481-2.019,4.5-4.5,4.5H51.626c-0.828,0-1.5,0.671-1.5,1.5  s0.672,1.5,1.5,1.5h26.312c4.136,0,7.5-3.364,7.5-7.5v-11.4h3.125c1.93,0,3.5-1.57,3.5-3.5V42.535  C92.063,40.605,90.492,39.035,88.563,39.035z M89.063,56.91c0,0.276-0.225,0.5-0.5,0.5h-19.25c-0.275,0-0.5-0.224-0.5-0.5V42.535  c0-0.276,0.225-0.5,0.5-0.5h19.25c0.275,0,0.5,0.224,0.5,0.5V56.91z M73.75,44.691c-0.828,0-1.5,0.671-1.5,1.5v7.063  c0,0.829,0.672,1.5,1.5,1.5s1.5-0.671,1.5-1.5v-7.063C75.25,45.362,74.578,44.691,73.75,44.691z M76.44,15.262H15.438  c-0.828,0-1.5,0.671-1.5,1.5s0.672,1.5,1.5,1.5H76.44c0.828,0,1.5-0.671,1.5-1.5S77.269,15.262,76.44,15.262z"/><text x="0" y="115" fill="#000000" font-size="5px" font-weight="bold" font-family="'Helvetica Neue', Helvetica, Arial-Unicode, Arial, Sans-serif">Created by Deepz</text><text x="0" y="120" fill="#000000" font-size="5px" font-weight="bold" font-family="'Helvetica Neue', Helvetica, Arial-Unicode, Arial, Sans-serif">from the Noun Project</text></svg>