<svg xmlns="http://www.w3.org/2000/svg" data-name="Слой 1" viewBox="0 0 100 125" x="0px" y="0px"><title>Монтажная область 7</title><rect x="36.75" y="70.91" width="14" height="16"/><circle cx="73.49" cy="49.44" r="6.92"/><path d="M33.75,67.91H56.89c-.85-1.93-1.69-4-2.46-6H33.75v-3H53.37a47,47,0,0,1-1.63-6h-18v-3H51.38c0-.15,0-.32,0-.46a22.09,22.09,0,0,1,.7-5.54H33.73v-3H53.07a22.18,22.18,0,0,1,3.75-6H33.73v-3H60a22.06,22.06,0,0,1,17.74-4.18V7.91h-51v79h7Zm0-54H71.69v3H33.75Zm0,9H71.69v3H33.75Z"/><path d="M66.64,86.91c-1.81-3-3.75-6.59-5.62-10.28-.73-1.45-1.71-3.44-2.77-5.72H53.75v16Z"/><path d="M77.26,86.91h0c5.85-9.74,15.36-29.31,15.36-37.46a19.13,19.13,0,1,0-38.26,0c0,5,3.69,14.35,7.93,23.08h0l.77,1.56,0,.06.76,1.51,0,.08.76,1.47,0,.1.76,1.44,0,.07.76,1.41,0,.07L67,81.68l0,0,.76,1.35h0c1.58,2.79,3,5.16,4.21,6.84h0a19.16,19.16,0,0,0,1.69,2.18,19.12,19.12,0,0,0,1.65-2.18h0c.57-.84,1.2-1.85,1.89-3ZM73.49,39.52a9.92,9.92,0,1,1-9.92,9.92A9.93,9.93,0,0,1,73.49,39.52Z"/><path d="M66.64,86.91H21.75V77.63a13.52,13.52,0,0,0,2-.4V43.34a8.17,8.17,0,0,0-3.14-.64A8.87,8.87,0,0,0,12,51.8a9.53,9.53,0,0,0,.64,3.44A12.29,12.29,0,0,0,7.25,65.33a12.61,12.61,0,0,0,11.5,12.33v9.24h-10v3H68.49l-.35-.54C67.66,88.6,67.15,87.77,66.64,86.91Z"/><path d="M80.71,86.91c-.5.86-1,1.68-1.46,2.44l-.35.56H92.75v-3Z"/><text x="0" y="115" fill="#000000" font-size="5px" font-weight="bold" font-family="'Helvetica Neue', Helvetica, Arial-Unicode, Arial, Sans-serif">Created by Nikita Kozin</text><text x="0" y="120" fill="#000000" font-size="5px" font-weight="bold" font-family="'Helvetica Neue', Helvetica, Arial-Unicode, Arial, Sans-serif">from the Noun Project</text></svg>